<?xml version="1.0" encoding="UTF-8"?>
<svg id="Layer_1" data-name="Layer 1" xmlns="http://www.w3.org/2000/svg" version="1.1" viewBox="0 0 300 46">
  <defs>
    <style>
      .cls-1 {
        fill: #FFF0;
      }

      .cls-1, .cls-2 {
        stroke-width: 0px;
      }

      .cls-2 {
        fill: #fff;
      }
    </style>
  </defs>
  <rect class="cls-1" x="-1.4" width="301.4" height="46"/>
  <g>
    <g>
      <path class="cls-2" d="M51.3,30.6h-2.3l-7.5-8.8v8.8h-1.9V12.9h5.9c2.7,0,4.8,2.2,4.8,4.8s-2.2,4.8-4.8,4.8h-1.1l6.8,8ZM45.6,14.6h-4v6.4h4c1.8,0,3-1.4,3-3.2s-1.2-3.2-3-3.2Z"/>
      <path class="cls-2" d="M69.2,30.6h-9.8V12.9h9.8v1.7h-7.9v6.4h7.2v1.7h-7.2v6.4h7.9v1.7Z"/>
      <path class="cls-2" d="M91.8,30.6h-2l-1.8-4.8h-8.2l-1.8,4.8h-2l6.9-17.7h2.1l6.9,17.7ZM87.4,24.2l-3.5-9.1-3.5,9.1h6.9Z"/>
      <path class="cls-2" d="M108.9,14.6h-5.2v16.1h-1.9V14.6h-5.2v-1.7h12.3v1.7Z"/>
      <path class="cls-2" d="M118.4,30.6h-1.9V12.9h1.9v17.7Z"/>
      <path class="cls-2" d="M142.2,12.9l-7.3,17.7h-2.1l-7.4-17.7h2l6.4,15.8,6.4-15.8h2Z"/>
      <path class="cls-2" d="M159.1,30.6h-9.8V12.9h9.8v1.7h-7.9v6.4h7.2v1.7h-7.2v6.4h7.9v1.7Z"/>
      <path class="cls-2" d="M194.1,30.6h-1.9v-14.5l-5.4,8.6h-1.9l-5.4-8.6v14.5h-1.9V12.9h1.9l6.4,10.1,6.4-10.1h1.9v17.7Z"/>
      <path class="cls-2" d="M205,30.6h-1.9V12.9h1.9v17.7Z"/>
      <path class="cls-2" d="M227.4,30.6h-1.9l-9.6-14.6v14.6h-1.9V12.9h1.9l9.6,14.6v-14.6h1.9v17.7Z"/>
      <path class="cls-2" d="M242.4,30.6h-6V12.9h6c4.9,0,8.9,4,8.9,8.9s-4,8.9-8.9,8.9ZM242.2,14.6h-3.9v14.4h3.9c4,0,7.2-3.2,7.2-7.2s-3.2-7.2-7.2-7.2Z"/>
      <path class="cls-2" d="M263.5,31.1c-2.9,0-5.6-1.5-6.1-4.7l1.7-.7c.5,2.7,2.4,3.7,4.4,3.7s4.3-1.3,4.3-3.6-.9-2.6-2.5-3l-3.9-.9c-2.3-.5-3.5-2.4-3.5-4.4,0-3.5,2.7-5.2,5.6-5.2s5.4,1.6,5.8,4.7l-1.6.6c-.5-2.6-2.3-3.7-4.3-3.7s-3.6,1.7-3.6,3.4.8,2.5,2.1,2.8l4.2.9c2.3.5,3.6,2.4,3.6,4.5,0,3.6-3.1,5.4-6.1,5.4Z"/>
      <path class="cls-2" d="M29,26.6c-1.4,1.8-3.5,2.9-5.8,2.9-4.1,0-7.4-3.5-7.4-7.7s3.3-7.7,7.4-7.7,5,1.5,6.3,3.7h2.1c-1.5-3.1-4.7-5.3-8.4-5.3s-9.3,4.2-9.3,9.3,4.2,9.3,9.3,9.3,6.4-1.8,8-4.6h-2.2Z"/>
    </g>
    <path class="cls-2" d="M284.7,33.6h-9.9v-1.7h9.9v1.7Z"/>
  </g>
</svg>